<svg width="174" height="102" viewBox="0 0 174 102" fill="none" xmlns="http://www.w3.org/2000/svg">
<path d="M153.084 42.5337V40.8C153.084 18.2577 134.969 0 112.602 0C103.19 0 94.2843 3.264 87.3012 8.976C84.6699 11.1177 82.241 13.5657 80.2169 16.3197C74.9546 12.3417 68.6795 10.2 62 10.2C45.3009 10.2 31.3012 23.9697 31.3012 40.8C14.5015 40.8 0.939758 54.4677 0.939758 71.4C0.939758 88.3317 14.5015 102 31.3012 102H142.964C159.663 102 173.663 88.2297 173.663 71.4C173.663 58.2417 165.027 46.7157 153.084 42.5337Z" fill="#406833"/>
</svg>
