<svg width="97" height="57" viewBox="0 0 97 57" fill="none" xmlns="http://www.w3.org/2000/svg">
<path d="M84.8375 23.7004V22.7344C84.8375 10.1734 74.7434 0 62.2804 0C57.0358 0 52.0732 1.81875 48.1821 5.00156C46.7159 6.19493 45.3625 7.55899 44.2346 9.09356C41.3024 6.87696 37.8059 5.68359 34.0839 5.68359C24.7789 5.68359 16.9781 13.3563 16.9781 22.7344C7.61707 22.7344 0.0602417 30.3502 0.0602417 39.7852C0.0602417 49.2197 7.61707 56.8359 16.9781 56.8359H79.1982C88.5032 56.8359 96.304 49.1629 96.304 39.7852C96.304 32.4531 91.4919 26.0307 84.8375 23.7004Z" fill="#75B03A"/>
</svg>
