<svg width="351" height="141" viewBox="0 0 351 141" fill="none" xmlns="http://www.w3.org/2000/svg">
<path d="M335.392 58.7138C324.014 51.6506 287.313 42.6196 235.809 42.6196L208.603 10.6311C202.865 3.88442 194.487 0.000701904 185.67 0.000701904H104.233C95.5805 0.000701904 87.2139 3.12023 80.6444 8.79511L48.5399 36.5309L14.2968 41.4609C9.43397 42.1609 5.47651 45.7584 4.2851 50.5615L0.213348 66.9724L90.8285 109.591H344.546V75.1722C344.545 68.4414 341.078 62.2444 335.392 58.7138Z" fill="#E63535"/>
<path d="M344.545 79.1484C344.545 66.9716 326.423 54.7949 241.85 54.7949H6.25317C2.91708 54.7949 0.212616 57.5213 0.212616 60.8829V97.4131L114.991 115.678H344.546V79.1484H344.545Z" fill="#B71C18"/>
<path d="M344.545 103.502H61.2819L7.56225 91.4713C4.33565 90.7575 1.07893 92.8059 0.352861 96.0937C-0.367051 99.376 1.68661 102.628 4.94264 103.356L59.3104 115.533C59.7408 115.631 60.1774 115.679 60.6195 115.679H344.543C347.882 115.679 350.584 112.952 350.584 109.591C350.585 106.228 347.884 103.502 344.545 103.502Z" fill="#E63535"/>
<path d="M290.173 133.942C306.854 133.942 320.377 120.313 320.377 103.5C320.377 86.6881 306.854 73.059 290.173 73.059C273.492 73.059 259.969 86.6881 259.969 103.5C259.969 120.313 273.492 133.942 290.173 133.942Z" fill="#EDEDEE"/>
<path d="M290.176 140.032C270.189 140.032 253.931 123.646 253.931 103.502C253.931 83.3576 270.189 66.9716 290.176 66.9716C310.164 66.9716 326.422 83.3576 326.422 103.502C326.422 123.646 310.164 140.032 290.176 140.032ZM290.176 79.1484C276.85 79.1484 266.013 90.0712 266.013 103.502C266.013 116.932 276.85 127.855 290.176 127.855C303.502 127.855 314.34 116.933 314.34 103.502C314.34 90.0712 303.503 79.1484 290.176 79.1484Z" fill="#565656"/>
<path d="M290.173 115.677C296.846 115.677 302.255 110.225 302.255 103.5C302.255 96.7754 296.846 91.3237 290.173 91.3237C283.5 91.3237 278.091 96.7754 278.091 103.5C278.091 110.225 283.5 115.677 290.173 115.677Z" fill="#DCDBDE"/>
<path d="M60.6188 133.942C77.3001 133.942 90.823 120.313 90.823 103.5C90.823 86.6881 77.3001 73.059 60.6188 73.059C43.9375 73.059 30.4147 86.6881 30.4147 103.5C30.4147 120.313 43.9375 133.942 60.6188 133.942Z" fill="#EDEDEE"/>
<path d="M60.6216 140.032C40.6344 140.032 24.3762 123.646 24.3762 103.502C24.3762 83.3576 40.6344 66.9716 60.6216 66.9716C80.6087 66.9716 96.867 83.3576 96.867 103.502C96.8663 123.646 80.608 140.032 60.6216 140.032ZM60.6216 79.1484C47.2957 79.1484 36.458 90.0712 36.458 103.502C36.458 116.932 47.2957 127.855 60.6216 127.855C73.9475 127.855 84.7852 116.933 84.7852 103.502C84.7852 90.0712 73.9475 79.1484 60.6216 79.1484Z" fill="#565656"/>
<path d="M60.6188 115.677C67.2914 115.677 72.7006 110.225 72.7006 103.5C72.7006 96.7754 67.2914 91.3237 60.6188 91.3237C53.9462 91.3237 48.537 96.7754 48.537 103.5C48.537 110.225 53.9462 115.677 60.6188 115.677Z" fill="#DCDBDE"/>
<path d="M241.849 91.3251H114.991C111.655 91.3251 108.95 88.5987 108.95 85.2371C108.95 81.8748 111.655 79.1491 114.991 79.1491H241.849C245.185 79.1491 247.89 81.8748 247.89 85.2371C247.89 88.6001 245.185 91.3251 241.849 91.3251Z" fill="#E63535"/>
<path d="M344.545 91.3251H338.504C335.168 91.3251 332.463 88.5987 332.463 85.2371C332.463 81.8748 335.168 79.1491 338.504 79.1491H344.545C347.881 79.1491 350.585 81.8748 350.585 85.2371C350.585 88.6001 347.881 91.3251 344.545 91.3251Z" fill="#E63535"/>
<path d="M48.5398 36.5302L80.6443 8.79442C87.2138 3.11954 95.5804 0 104.233 0H185.67C194.488 0 202.864 3.88304 208.603 10.6304L235.809 42.6189H92.7829C87.4588 42.6189 82.1443 42.1754 76.8921 41.2933L48.5398 36.5302Z" fill="#B71C18"/>
<path d="M179.02 10.4697C176.725 7.69366 173.325 6.08871 169.739 6.08871H113.95C110.746 6.08871 107.672 7.37157 105.407 9.65518L87.285 27.9199C85.683 29.5345 84.7824 31.7243 84.7824 34.0079C84.7824 38.7628 88.6071 42.6182 93.3256 42.6182H199.155C201.715 42.6182 203.114 39.6076 201.475 37.6247L179.02 10.4697Z" fill="#625D6B"/>
<path d="M127.071 42.6182H108.948L121.03 6.08871H133.112L127.071 42.6182Z" fill="#504B5A"/>
<path d="M338.06 60.8836H332.462C329.126 60.8836 326.421 63.6093 326.421 66.9717C326.421 70.334 329.126 73.0597 332.462 73.0597H344.274C343.75 68.3248 341.562 64.0411 338.06 60.8836Z" fill="#EDEDEE"/>
<path d="M208.603 10.6304C207.155 8.92823 205.537 7.41019 203.788 6.08871H193.929C191.368 6.08871 189.97 9.09859 191.609 11.0822L214.063 38.2386C216.359 41.0146 219.759 42.6196 223.344 42.6196H235.808L208.603 10.6304Z" fill="#625D6B"/>
<path d="M0.212616 60.8836V66.9717H12.2944C15.6305 66.9717 18.335 64.2459 18.335 60.8836C18.335 57.5213 15.6298 54.7956 12.2944 54.7956H6.25317C2.91639 54.7949 0.212616 57.5213 0.212616 60.8836Z" fill="#FF6464"/>
</svg>
