<svg width="55" height="68" viewBox="0 0 55 68" fill="none" xmlns="http://www.w3.org/2000/svg">
<path d="M2.9216 6.50268C2.9216 9.71817 5.50818 12.3251 8.69923 12.3251C11.8896 12.3251 14.4762 9.71817 14.4762 6.50268C14.4762 3.2872 11.8896 0.680298 8.69923 0.680298C5.50818 0.680298 2.9216 3.2872 2.9216 6.50268Z" fill="white"/>
<path d="M46.25 44.3485C46.25 46.7603 48.19 48.7155 50.583 48.7155C52.9759 48.7155 54.9152 46.7603 54.9152 44.3485C54.9152 41.9367 52.9759 39.9816 50.583 39.9816C48.19 39.9816 46.25 41.9367 46.25 44.3485Z" fill="white"/>
<path d="M0.0334291 64.7272C0.0334291 66.3352 1.32672 67.6387 2.92225 67.6387C4.51713 67.6387 5.81042 66.3352 5.81042 64.7272C5.81042 63.1198 4.51713 61.8163 2.92225 61.8163C1.32672 61.8163 0.0334291 63.1198 0.0334291 64.7272Z" fill="white"/>
</svg>
