<svg width="66" height="56" viewBox="0 0 66 56" fill="none" xmlns="http://www.w3.org/2000/svg">
<path d="M7.11908 14.5582C3.9932 10.9054 4.39767 5.39087 8.02195 2.24043C11.6462 -0.909364 17.1184 -0.502357 20.2437 3.1504C21.1261 4.18208 21.7568 5.40632 22.0858 6.72716C24.8609 0.940842 31.7644 -1.48188 37.5057 1.31501C43.2462 4.11189 45.6501 11.0696 42.875 16.856C42.2392 18.1813 41.36 19.3727 40.2839 20.3677C45.1612 23.1066 46.9127 29.3115 44.1951 34.2278C43.9031 34.7559 43.5651 35.2569 43.1849 35.7245C44.6999 36.2931 46.0584 37.2192 47.1465 38.4241C51.7018 36.9442 56.5849 39.4661 58.0533 44.0572C58.3293 44.9201 58.4705 45.8204 58.4711 46.7272H65.6922V55.4611H39.6954C34.8168 55.4579 30.636 51.9429 29.7574 47.1058C24.7772 49.6213 18.7165 47.5914 16.2207 42.5721C15.6418 41.4077 15.2903 40.1416 15.1849 38.8433C8.05965 39.669 1.6194 34.5157 0.800873 27.3345C0.214928 22.1908 2.6916 17.1831 7.11908 14.5582Z" fill="white"/>
</svg>
