<svg width="73" height="75" viewBox="0 0 73 75" fill="none" xmlns="http://www.w3.org/2000/svg">
<path d="M36.6188 67.9419C53.3001 67.9419 66.823 54.3128 66.823 37.5004C66.823 20.6881 53.3001 7.05896 36.6188 7.05896C19.9375 7.05896 6.41467 20.6881 6.41467 37.5004C6.41467 54.3128 19.9375 67.9419 36.6188 67.9419Z" fill="#EDEDEE"/>
<path d="M36.6216 74.032C16.6344 74.032 0.37619 57.646 0.37619 37.5018C0.37619 17.3576 16.6344 0.971649 36.6216 0.971649C56.6087 0.971649 72.867 17.3576 72.867 37.5018C72.8663 57.646 56.608 74.032 36.6216 74.032ZM36.6216 13.1484C23.2957 13.1484 12.458 24.0712 12.458 37.5018C12.458 50.9324 23.2957 61.8553 36.6216 61.8553C49.9475 61.8553 60.7852 50.9331 60.7852 37.5018C60.7852 24.0712 49.9475 13.1484 36.6216 13.1484Z" fill="#565656"/>
<path d="M36.6188 49.6772C43.2914 49.6772 48.7006 44.2255 48.7006 37.5005C48.7006 30.7754 43.2914 25.3237 36.6188 25.3237C29.9462 25.3237 24.537 30.7754 24.537 37.5005C24.537 44.2255 29.9462 49.6772 36.6188 49.6772Z" fill="#DCDBDE"/>
</svg>
